Simulation
nRows=19
nColumns=15
endheader
time  TH_x TH_y TH_z SC_y  SC_z  SC_x  AC_y  AC_z  AC_x  GH_y  GH_z  GH_yy  EL_x  PS_y
0.0  0.000000  0.000000  0.000000  -38.0636709857491  -0.9467075460610693  5.149658372107239  46.56170959978767  0.6129389679571239  -5.02011286612967  48.87846431884149  3.922980669878588  -32.516673037699  21.227971788898277  120.000000
0.03200000000000003  0.000000  0.000000  0.000000  -37.69704416116101  -0.10403228020135874  4.915467543415215  45.99169611862576  1.197537215001367  -4.601934799962613  48.667375706659776  4.081706880746666  -32.6913766937917  21.050208404679953  120.000000
0.06400000000000006  0.000000  0.000000  0.000000  -37.33576519074052  0.42420005358169366  4.65860020319747  45.50573397923863  1.6730700666011933  -4.370713542209035  48.467086394383706  4.145827131143926  -32.85921854502511  20.864984232948604  120.000000
0.09600000000000009  0.000000  0.000000  0.000000  -37.03920916072095  0.7343117179147894  4.419333420739919  45.12114063397435  2.003561120654598  -4.247854542837474  48.290493163401706  4.134308898522596  -33.02056671675263  20.710974101514495  120.000000
0.1280000000000001  0.000000  0.000000  0.000000  -36.84118605799311  0.8577403398335166  4.23083684258984  44.863167149732284  2.1937552882132856  -4.210092176284873  48.13215368172377  4.0909831129003065  -33.1960109380344  20.590266856099863  120.000000
0.16000000000000014  0.000000  0.000000  0.000000  -36.749586437776834  0.8402200282476595  4.11486707365115  44.75162563464199  2.243966875732565  -4.224742085602446  47.9898434685441  4.066904940915537  -33.40283534244827  20.484343731018377  120.000000
0.19200000000000017  0.000000  0.000000  0.000000  -36.74302718274784  0.729300910609018  4.08697153976354  44.779436647321795  2.168641768223008  -4.265359558823256  47.87500160242005  4.092679152194647  -33.64270336099396  20.40592352985328  120.000000
0.2240000000000002  0.000000  0.000000  0.000000  -36.78522174286061  0.565364015991079  4.15918565798859  44.92951220405293  1.9886612240954982  -4.318944647040552  47.80908100156234  4.188668440129672  -33.907507368003714  20.37436624607799  120.000000
0.2560000000000002  0.000000  0.000000  0.000000  -36.8406766525604  0.38015439815117774  4.341530804741085  45.179629052493915  1.7239692010537147  -4.379209050700728  47.81720871173757  4.368535837009858  -34.189212179124105  20.402193879087587  120.000000
0.28800000000000026  0.000000  0.000000  0.000000  -36.88611359909549  0.1939277950613696  4.637050760069589  45.511573095692654  1.3929131864142432  -4.444055824283827  47.92318672634866  4.6500943291505425  -34.48846423505372  20.492074178049023  120.000000
0.3200000000000003  0.000000  0.000000  0.000000  -36.9144586211745  0.0180216035024604  5.043512647759823  45.910707231628706  1.0112957771210433  -4.51061295938783  48.14831459539446  5.054140678112791  -34.81695085179677  20.63349973298857  120.000000
0.3520000000000003  0.000000  0.000000  0.000000  -36.92691367424498  -0.1397284282015235  5.550826612398818  46.361864753664534  0.592263920252581  -4.576414680936789  48.50955127675734  5.603382588916059  -35.19924506827041  20.81034326051544  120.000000
0.38400000000000034  0.000000  0.000000  0.000000  -36.9257118766524  -0.2707476374694266  6.14561916624616  46.84478490883333  0.14693276444143025  -4.642590675470073  49.02185060393277  6.314226361361467  -35.66720814094801  21.010505711582635  120.000000
0.41600000000000037  0.000000  0.000000  0.000000  -36.90916096447843  -0.36395930978900404  6.810165751647594  47.33216360178057  -0.3161333259339878  -4.712762601095425  49.697823068902544  7.196467767305702  -36.2573867432688  21.227985222460873  120.000000
0.4480000000000004  0.000000  0.000000  0.000000  -36.8733970460512  -0.4079785758090911  7.521647069012053  47.79767246022399  -0.7929442191835957  -4.787593844851636  50.542022763432  8.257124076710774  -37.01255922678911  21.456560506049062  120.000000
0.4800000000000004  0.000000  0.000000  0.000000  -36.817802597080124  -0.39643132040308865  8.256203507059764  48.22184599755303  -1.2869214181478603  -4.861927806156121  51.546305666947994  9.505002998766935  -37.98085665737231  21.682566253847337  120.000000
0.5120000000000005  0.000000  0.000000  0.000000  -36.74252704546504  -0.32884837707660325  8.997078473105335  48.59791571358326  -1.813960088455503  -4.926921635174193  52.68459678532164  10.949365613762952  -39.212294749101396  21.88336647505328  120.000000
0.5440000000000005  0.000000  0.000000  0.000000  -36.6436125564424  -0.20629653950702367  9.74251111086028  48.92729078155164  -2.398352601719484  -4.9727017193764045  53.91821810570044  12.587955727181301  -40.740979843791976  22.03479714747561  120.000000
0.5760000000000005  0.000000  0.000000  0.000000  -36.51692886530644  -0.030374212779465597  10.509174405137014  49.2217363999397  -3.0589757378964544  -4.995919055620434  55.204368803339094  14.39975389650054  -42.56463509517997  22.12559608219371  120.000000
